<svg width="20" height="23" viewBox="0 0 20 23" fill="none" xmlns="http://www.w3.org/2000/svg">
<path d="M0 4.28572C0 3.49688 0.639732 2.85715 1.42857 2.85715H18.5714C19.3616 2.85715 20 3.49688 20 4.28572C20 5.0759 19.3616 5.71429 18.5714 5.71429H1.42857C0.639732 5.71429 0 5.0759 0 4.28572ZM0 11.4286C0 10.6384 0.639732 10 1.42857 10H18.5714C19.3616 10 20 10.6384 20 11.4286C20 12.2188 19.3616 12.8571 18.5714 12.8571H1.42857C0.639732 12.8571 0 12.2188 0 11.4286ZM18.5714 20H1.42857C0.639732 20 0 19.3616 0 18.5714C0 17.7813 0.639732 17.1429 1.42857 17.1429H18.5714C19.3616 17.1429 20 17.7813 20 18.5714C20 19.3616 19.3616 20 18.5714 20Z" fill="white"/>
</svg>
