<svg width="15" height="15" viewBox="0 0 15 15" fill="none" xmlns="http://www.w3.org/2000/svg">
<path d="M15 7.5C15 8.13786 14.4833 8.65421 13.8462 8.65421H8.65385V13.8465C8.65385 14.4844 8.13714 15 7.5 15C6.86286 15 6.34615 14.4844 6.34615 13.8465V8.65421H1.15385C0.516707 8.65421 0 8.13786 0 7.5C0 6.86214 0.516707 6.34651 1.15385 6.34651H6.34615V1.15421C6.34615 0.516346 6.86286 0 7.5 0C8.13714 0 8.65385 0.516346 8.65385 1.15421V6.34651H13.8462C14.4844 6.34615 15 6.86178 15 7.5Z" fill="white"/>
</svg>
