<svg width="20" height="20" viewBox="0 0 20 20" fill="none" xmlns="http://www.w3.org/2000/svg">
<g clip-path="url(#clip0_4_36)">
<path d="M15.75 13.98C17.0804 12.202 17.6879 9.98602 17.4502 7.77812C17.2125 5.57022 16.1473 3.53433 14.4689 2.08027C12.7905 0.626214 10.6235 -0.138053 8.40431 -0.0586842C6.18507 0.0206847 4.07828 0.937796 2.50804 2.50804C0.937796 4.07828 0.0206847 6.18507 -0.0586842 8.40431C-0.138053 10.6235 0.626214 12.7905 2.08027 14.4689C3.53433 16.1473 5.57022 17.2125 7.77812 17.4502C9.98602 17.6879 12.202 17.0804 13.98 15.75L18.23 20L20 18.2333L15.75 13.98ZM8.74999 15C7.51385 15 6.30548 14.6334 5.27767 13.9467C4.24987 13.2599 3.44879 12.2838 2.97574 11.1418C2.50269 9.99972 2.37892 8.74305 2.62008 7.53067C2.86124 6.31829 3.45649 5.20465 4.33057 4.33057C5.20465 3.45649 6.31829 2.86124 7.53067 2.62008C8.74305 2.37892 9.99972 2.50269 11.1418 2.97574C12.2838 3.44879 13.2599 4.24987 13.9467 5.27767C14.6334 6.30548 15 7.51385 15 8.74999C14.9984 10.4071 14.3395 11.9959 13.1677 13.1677C11.9959 14.3395 10.4071 14.9984 8.74999 15Z" fill="white" fill-opacity="0.5"/>
</g>
<defs>
<clipPath id="clip0_4_36">
<rect width="20" height="20" fill="white"/>
</clipPath>
</defs>
</svg>
