<svg width="28" height="43" viewBox="0 0 28 43" fill="none" xmlns="http://www.w3.org/2000/svg">
<g clip-path="url(#clip0_4_21)" filter="url(#filter0_d_4_21)">
<path d="M4 0V36.2319C6.17391 35.942 9 35.7246 11.1739 35.6159V0H4Z" fill="#B1060E"/>
<path d="M16.8261 0V35.6159C19.3985 35.7246 21.5725 35.942 24 36.2319V0H16.8261Z" fill="#B1060E"/>
<path d="M4 0V7.24638L11.1739 28.9855V20.1812L16.6449 35.6159C19.3986 35.7246 21.5725 35.942 24 36.2319V28.9855L16.8261 7.24638V15.942L11.1739 0H4Z" fill="url(#paint0_radial_4_21)"/>
<path d="M4 0L16.6449 35.6159C19.3986 35.7246 21.5725 35.942 24 36.2319L11.1739 0H4Z" fill="#E50914"/>
</g>
<defs>
<filter id="filter0_d_4_21" x="0" y="0" width="28" height="44.2319" filterUnits="userSpaceOnUse" color-interpolation-filters="sRGB">
<feFlood flood-opacity="0" result="BackgroundImageFix"/>
<feColorMatrix in="SourceAlpha" type="matrix" values="0 0 0 0 0 0 0 0 0 0 0 0 0 0 0 0 0 0 127 0" result="hardAlpha"/>
<feOffset dy="4"/>
<feGaussianBlur stdDeviation="2"/>
<feComposite in2="hardAlpha" operator="out"/>
<feColorMatrix type="matrix" values="0 0 0 0 0 0 0 0 0 0 0 0 0 0 0 0 0 0 0.25 0"/>
<feBlend mode="normal" in2="BackgroundImageFix" result="effect1_dropShadow_4_21"/>
<feBlend mode="normal" in="SourceGraphic" in2="effect1_dropShadow_4_21" result="shape"/>
</filter>
<radialGradient id="paint0_radial_4_21" cx="0" cy="0" r="1" gradientUnits="userSpaceOnUse" gradientTransform="translate(13.2264 18.1159) scale(5.7 27.1739)">
<stop offset="0.6" stop-opacity="0.3"/>
<stop offset="0.9" stop-opacity="0.05"/>
<stop offset="1" stop-opacity="0"/>
</radialGradient>
<clipPath id="clip0_4_21">
<rect width="20" height="36.2319" fill="white" transform="translate(4)"/>
</clipPath>
</defs>
</svg>
